<svg viewBox="0 0 76 59" width="75px" xmlns="http://www.w3.org/2000/svg"><defs><style>.a{fill:rgba(255,255,255,0);}.b{fill:#004da9;}</style></defs><g transform="translate(-29 -6)"><rect transform="translate(29 6)" height="20" width="75" class="a"></rect><g transform="translate(34 10.62)"><g transform="translate(14.675 14.675)"><path transform="translate(1666.46 256.768)" d="M-1657.719-256.085a6.766,6.766,0,0,0-2.914-.683,4.065,4.065,0,0,0-3.536,1.416,5.666,5.666,0,0,0-.872,3.438v1.39h-1.419v2.579h1.419v10.44h3.013v-10.44h3.312v-2.579h-3.312v-1.163a2.826,2.826,0,0,1,.473-1.972,1.522,1.522,0,0,1,1.22-.43,3.755,3.755,0,0,1,1.719.4Z" class="b"></path><path transform="translate(1594.044 255.21)" d="M-1576.923-254.907h-3.013v18.959h3.013Z" class="b"></path><path transform="translate(1550.593 226.275)" d="M-1521.371-220.334a6.6,6.6,0,0,0-6.649,6.8,6.608,6.608,0,0,0,6.649,6.825,6.608,6.608,0,0,0,6.649-6.825A6.6,6.6,0,0,0-1521.371-220.334Zm3.586,6.8c0,2.3-1.494,4.146-3.586,4.146s-3.586-1.846-3.586-4.146c0-2.275,1.494-4.12,3.586-4.12S-1517.785-215.809-1517.785-213.533Z" class="b"></path></g><path transform="translate(1756.46 346.768)" d="M-1691.239-297.852h-65.221v-48.916h65.221Zm-61.96-3.261h58.7v-42.394h-58.7Z" class="b"></path></g></g></svg>